<?xml version="1.0" encoding="UTF-8"?>
<svg id="Capa_2" xmlns="http://www.w3.org/2000/svg" viewBox="0 0 36.08 27.07">
  <defs>
    <style>
      .cls-1 {
        fill: none;
        stroke: #000;
        stroke-miterlimit: 10;
        stroke-width: .76px;
      }
    </style>
  </defs>
  <g id="Capa_5">
    <g>
      <rect x="17.09" y="7.6" width="7.6" height="7.6" />
      <rect x="24.69" y="7.6" width="7.6" height="7.6" />
      <rect x="9.5" y="7.6" width="7.6" height="7.6" />
      <rect x="20.89" y="0" width="7.6" height="7.6" />
      <rect x="28.49" y="0" width="7.6" height="7.6" />
      <polygon class="cls-1"
        points="17.45 22.79 8.96 22.79 .47 22.79 .47 26.69 8.96 26.69 17.45 26.69 25.94 26.69 25.94 22.79 17.45 22.79" />
      <rect x="11.39" y="15.19" width="7.6" height="7.6" />
      <rect x="18.99" y="15.19" width="7.6" height="7.6" />
      <rect y="18.99" width="3.8" height="3.8" />
      <rect x="5.7" y="11.39" width="3.8" height="3.8" />
      <rect x="26.59" y="15.19" width="3.8" height="3.8" />
      <rect x="32.28" y="7.6" width="3.8" height="3.8" />
      <polygon points="17.09 0 17.09 3.8 13.29 3.8 13.29 7.6 20.89 7.6 20.89 0 17.09 0" />
      <rect x="3.8" y="15.19" width="7.6" height="7.6" />
    </g>
  </g>
</svg>