<?xml version="1.0" encoding="UTF-8"?><svg id="Capa_2" xmlns="http://www.w3.org/2000/svg" viewBox="0 0 522 448"><defs><style>.cls-1{fill:#65624f;}.cls-2{fill:#f76c2e;}.cls-3{fill:#061109;}.cls-4{fill:#fe16ab;}.cls-5{fill:#f9cb8c;}.cls-6{fill:#0ff188;}.cls-7{fill:none;}.cls-8{fill:#117af3;}.cls-9{fill:#dfcec4;}.cls-10{fill:#6ec0f7;}</style></defs><g id="Capa_1-2"><g><polygon class="cls-9" points="98 378 141.6 378 140 208 180 208 180 170 212 170 212 144 182 144 182 102 140 102 140 70 98 70 98 104 66 104 66 170 32 170 32 260.02 64 260 63.46 343.67 66 343.67 66 344 98 344 98 378"/><polygon class="cls-2" points="454.34 68 390 68 390 34 352 34 352 66 376 66 376 104 398.65 104 398.65 140 428.99 140.21 429.24 172 452 172 452.1 215.51 429.59 214.91 429.8 240 405.93 240 406.13 262 376 262 376 310 352 310 352 348 332 348 326 348 326 376 248 376 248 392 182 392 182 414 350 414 350 376 388 376 388 344 422 344 422 308 452 308 452 262 486 262 486 105.29 454.34 105.29 454.34 68"/><g><polygon class="cls-7" points="376 66 376 104 398.65 104 398.65 140 428.99 140.21 429.24 172 452 172 452.1 215.51 429.59 214.91 429.8 240 405.93 240 406.13 262 376 262 376 310 352 310 352 348 332 348 326 348 326 376 248 376 248 392 182 392 182 414 350 414 350 376 388 376 388 344 422 344 422 308 452 308 452 262 486 262 486 105.29 454.34 105.29 454.34 68 390 68 390 34 352 34 352 66 376 66"/><rect class="cls-5" x="390" y="380" width="32" height="0"/><rect class="cls-5" x="352" y="416" width="38" height="0"/><rect class="cls-5" x="64" y="66" width="0" height="38"/><polygon class="cls-5" points="0 262 0 168 0 168 0 262 32 262 32 343.67 32 262 0 262"/><rect class="cls-5" x="32" y="104" width="0" height="64"/><g><polygon class="cls-5" points="429.59 214.91 452.1 215.51 452 172 429.24 172 428.99 140.21 398.65 140 398.65 104 376 104 376 66 352 66 352 34 180 34 180 70 140 70 140 102 182 102 182 144 212 144 212 170 180 170 180 208 140 208 141.56 374.6 141.6 374.6 141.6 378 141.6 414 182 414 182 392 248 392 248 376 326 376 326 348 332 348 352 348 352 310 376 310 376 262 406.13 262 405.93 240 429.8 240 429.59 214.91"/><polygon class="cls-5" points="141.6 374.6 141.56 374.6 141.6 378 141.6 374.6"/></g><rect class="cls-5" x="454" y="310" width="34" height="0"/><rect class="cls-5" x="178" y="0" width="0" height="34"/><rect class="cls-5" x="140" y="448" width="212" height="0"/><rect class="cls-5" x="488" y="264" width="32" height="0"/><rect class="cls-5" x="422" y="346" width="32" height="0"/><rect class="cls-5" x="98" y="34" width="0" height="32"/><rect class="cls-3" x="0" y="168" width="32" height="0"/><rect class="cls-3" x="32" y="104" width="32" height="0"/><rect class="cls-3" x="98" y="34" width="80" height="0"/><rect class="cls-3" x="64" y="66" width="34" height="0"/><rect class="cls-3" x="352" y="416" width="0" height="32"/><rect class="cls-3" x="454" y="310" width="0" height="36"/><polygon class="cls-3" points="32 343.67 32 343.67 32 343.94 62.12 344 64 344 64 342.86 64 260 63.46 343.67 32 343.67"/><polygon class="cls-3" points="522 104 487.37 104 486 104 486 68 456 68 456 66.19 456 32 390 32 390 0 178 0 178 0 178 0 390 0 390 32 456 32 456 68 486 68 486 104 522 104 520 264 520 264 522 104"/><rect class="cls-3" x="488" y="264" width="0" height="46"/><polygon class="cls-3" points="64 260 32 260 32 260.02 64 260"/><rect class="cls-3" x="422" y="346" width="0" height="34"/><rect class="cls-3" x="390" y="380" width="0" height="36"/><polygon class="cls-3" points="486 104 486 68 456 68 456 32 390 32 390 0 178 0 178 34 178 34 178 34 98 34 98 66 98 66 98 66 64 66 64 104 64 104 64 104 32 104 32 168 32 168 32 168 0 168 0 262 32 262 32 343.67 32 343.67 63.46 343.67 64 260 32 260.02 32 260 32 170 66 170 66 104 98 104 98 70 140 70 180 70 180 34 352 34 390 34 390 68 454.34 68 454.34 105.29 486 105.29 486 262 452 262 452 308 422 308 422 344 388 344 388 376 350 376 350 414 182 414 141.6 414 141.6 378 141.56 374.6 98 374.6 98 344 98 342.86 64 342.86 64 344 62.12 344 62.12 381.14 96.41 381.14 96.41 417.4 140 417.4 140 448 352 448 352 416 352 416 352 416 390 416 390 380 390 380 390 380 422 380 422 346 422 346 422 346 454 346 454 310 454 310 454 310 488 310 488 264 488 264 488 264 520 264 522 104 486 104"/></g><g><path class="cls-1" d="M181.92,262h26.08v-20h-70v18h-16v52h15.55v32h44.69c-.84-27.31-.46-54.66-.31-82Z"/><path class="cls-4" d="M236,286h-28v-24h-26.08c-.14,27.34-.52,54.69,.31,82h1.77v32h22v-30h30v-60Z"/></g><g><polygon class="cls-10" points="266 170 266 144 236 144 234 144 234 104 210 104 210 144 194 144 194 170 172 170 172 206 234 206 234 170 266 170"/><polygon class="cls-6" points="194 170 194 144 210 144 210 104 170 104 170 142 152 142 152.31 206 172 206 172 170 194 170"/></g><g><polygon class="cls-8" points="336 164 336 180 394 180.64 394 172 394 120 320 120 320 164 322 164 336 164"/><polygon class="cls-4" points="394 120 394 172 394 180.64 336 180 336 164 322 164 320 164 320 194 346 194 346 222 398 222 398 194 426 194 426 120 394 120"/></g></g></g></svg>