<?xml version="1.0" encoding="UTF-8"?>
<svg id="Capa_2" data-name="Capa 2" xmlns="http://www.w3.org/2000/svg" viewBox="0 0 38.6 35.84">
  <g id="Capa_6" data-name="Capa 6">
    <g>
      <polygon points="35.84 11.03 33.12 11.03 33.08 11.03 30.36 11.03 30.36 13.79 33.08 13.79 33.12 13.79 35.84 13.79 35.84 16.54 35.84 19.3 35.84 22.06 35.84 24.81 35.84 27.57 35.84 30.33 33.08 30.33 33.08 27.57 33.08 24.81 33.08 22.06 33.08 19.3 30.39 19.3 30.39 16.54 27.63 16.54 27.63 13.79 24.88 13.79 24.88 11.03 22.12 11.03 22.12 8.27 19.36 8.27 19.36 5.51 16.54 5.51 16.54 2.76 13.79 2.76 13.79 5.51 11.03 5.51 11.03 8.27 8.27 8.27 8.27 11.03 5.51 11.03 5.51 13.79 2.76 13.79 2.76 16.54 0 16.54 0 19.3 0 22.06 0 24.81 2.82 24.81 2.82 27.57 5.58 27.57 5.58 30.33 8.33 30.33 8.33 33.08 11.09 33.08 11.09 35.84 19.3 35.84 19.3 33.08 22.06 33.08 22.06 30.33 24.81 30.33 24.81 27.57 27.57 27.57 27.57 24.81 28.13 24.81 30.33 24.81 30.33 27.57 30.33 30.33 30.33 33.08 33.08 33.08 35.84 33.08 38.6 33.08 38.6 30.33 38.6 27.57 38.6 24.81 38.6 22.06 38.6 19.3 38.6 16.54 38.6 13.79 38.6 11.03 35.84 11.03"/>
      <rect x="27.6" y="8.27" width="2.76" height="2.76"/>
      <rect x="24.85" y="5.51" width="2.76" height="2.76"/>
      <rect x="22.09" y="2.76" width="2.76" height="2.76"/>
      <polygon points="20.01 2.76 22.09 2.76 22.09 0 20.01 0 19.33 0 16.54 0 16.54 2.76 19.33 2.76 20.01 2.76"/>
    </g>
  </g>
</svg>